<svg width="15" height="15" viewBox="0 0 15 15" fill="none" xmlns="http://www.w3.org/2000/svg">
<path d="M3.58347 1C2.89388 1 2.23255 1.27393 1.74494 1.76154C1.25733 2.24915 0.983398 2.91049 0.983398 3.60007V8.8002C0.983398 9.48978 1.25733 10.1511 1.74494 10.6387C2.23255 11.1263 2.89388 11.4003 3.58347 11.4003V13.3503C3.58353 13.4679 3.61548 13.5833 3.67592 13.6841C3.73635 13.785 3.82302 13.8675 3.92667 13.923C4.03033 13.9785 4.1471 14.0049 4.26454 13.9993C4.38199 13.9936 4.49571 13.9563 4.59359 13.8911L8.32989 11.4003H11.3837C12.0732 11.4003 12.7346 11.1263 13.2222 10.6387C13.7098 10.1511 13.9837 9.48978 13.9837 8.8002V3.60007C13.9837 2.91049 13.7098 2.24915 13.2222 1.76154C12.7346 1.27393 12.0732 1 11.3837 1H3.58347Z" stroke="#CECECE" stroke-width="1.5"/>
</svg>
